# Blender v3.2.2 OBJ File: 'scene.blend'
# www.blender.org
mtllib building.mtl
v 32.260513 35.299004 -5.211777
v 29.493357 20.543859 -5.699959
v 14.159904 35.299004 -5.128817
v 14.794728 20.543859 -5.632591
v 32.177551 35.299004 -23.312386
v 29.789347 20.732319 -20.902187
v 14.076943 35.299004 -23.229425
v 14.727362 20.543859 -20.331219
v 18.157503 28.619869 -9.288132
v 28.231892 28.619869 -9.334305
v 29.789347 28.617867 -20.902187
v 18.111330 28.619869 -19.362520
v 18.157503 25.387964 -9.288132
v 28.231892 25.387964 -9.334305
v 29.789347 24.675093 -20.902187
v 18.111330 25.387964 -19.362520
v 18.111330 31.815411 -19.362520
v 16.548109 32.530285 -7.539015
v 28.231892 31.815411 -9.334305
v 29.789347 32.530285 -20.902187
v 29.850313 32.530285 -7.599983
v 29.850313 28.617867 -7.599983
v 16.487143 24.675093 -20.841219
v 16.487143 28.617867 -20.841219
v 29.850313 24.675093 -7.599983
v 16.548109 24.675093 -7.539015
v 16.487143 32.530285 -20.841219
v 18.157503 31.815411 -9.288132
v 16.487143 1.019978 -20.841219
v 21.206785 1.372154 -7.630001
v 25.191000 1.372154 -7.648262
v 29.789347 1.019978 -20.902187
v 28.220728 15.241900 -11.456250
v 29.789347 15.750575 -20.902187
v 19.614098 15.241900 -19.984348
v 19.653362 15.241900 -11.416984
v 28.220728 13.768379 -11.456250
v 19.653362 13.768379 -11.416984
v 29.789347 13.259703 -20.902187
v 19.614098 13.768379 -19.984348
v 16.487143 13.259703 -20.841219
v 16.487143 15.750575 -20.841219
v 16.548109 15.750575 -7.539015
v 29.850313 15.750575 -7.599983
v 29.850313 13.259703 -7.599983
v 16.548109 13.259703 -7.539015
v 29.789347 18.241446 -20.902187
v 14.727362 18.429905 -20.331219
v 29.493357 18.429905 -5.699959
v 14.794728 18.429905 -5.632591
v 16.487143 20.732319 -20.841219
v 16.548109 20.732319 -7.539015
v 29.850313 20.732319 -7.599983
v 16.487143 18.241446 -20.841219
v 29.850313 18.241446 -7.599983
v 16.548109 18.241446 -7.539015
v 14.076943 32.631348 -23.229425
v 14.159904 32.631348 -5.128817
v 32.260513 32.631348 -5.211777
v 32.177551 32.631348 -23.312386
v 25.191000 5.674042 -7.648262
v 21.206785 5.674042 -7.630001
v 29.789347 7.183867 -20.902187
v 14.928498 7.206656 -20.244503
v 16.947344 1.301943 -7.610479
v 29.450439 1.301943 -7.667784
v 29.592663 7.206656 -5.714145
v 14.995400 7.206656 -5.647242
v 29.789347 7.769854 -20.902187
v 14.928498 7.747063 -20.244503
v 29.592663 7.747063 -5.714145
v 16.548109 7.769854 -7.539015
v 29.850313 7.769854 -7.599983
v 29.717430 7.026928 -7.599373
v 16.487143 7.183867 -20.841219
v 16.680992 7.026928 -7.539625
v 16.487143 7.769854 -20.841219
v 14.995400 7.747063 -5.647242
v 16.548109 1.019978 -7.539015
v 29.850313 1.019978 -7.599983
v 29.850313 7.183867 -7.599983
v 16.548109 7.183867 -7.539015
v 24.862368 4.319300 -8.675619
v 24.862368 3.473774 -8.675619
v 21.535313 5.432678 -8.856613
v 21.535313 1.294529 -8.856613
v 29.717430 1.176916 -7.599373
v 16.680992 1.176916 -7.539625
v 29.450439 6.517630 -7.667784
v 16.947344 6.517630 -7.610479
v 21.473776 1.255922 -7.561591
v 24.913521 3.467619 -7.773600
v 24.913521 4.338543 -7.773600
v 21.473776 5.553444 -7.561591
v 24.924648 5.553444 -7.577407
v 24.924648 1.255922 -7.577407
v 24.851242 5.432678 -8.871811
v 24.851242 1.294529 -8.871811
v 24.767513 4.338543 -7.765319
v 24.767513 3.467619 -7.765319
v 24.716358 4.319300 -8.667339
v 24.716358 3.473774 -8.667339
vt 0.966041 0.870072
vt 0.933265 0.870072
vt 0.933265 0.607633
vt 0.966041 0.607633
vt 0.951174 0.386052
vt 0.918398 0.386052
vt 0.918398 0.123512
vt 0.951174 0.123512
vt 0.983950 0.385802
vt 0.951174 0.385802
vt 0.951174 0.123512
vt 0.983950 0.123512
vt 0.220632 0.075732
vt 0.027690 0.075732
vt 0.027690 0.000000
vt 0.220632 0.000000
vt 0.215876 0.650023
vt 0.248651 0.650024
vt 0.248651 0.912668
vt 0.215876 0.912666
vt 0.524703 0.387151
vt 0.524703 0.649482
vt 0.262435 0.650188
vt 0.262435 0.387857
vt 0.439307 0.220415
vt 0.479015 0.220417
vt 0.479015 0.366599
vt 0.439307 0.366597
vt 0.413391 0.290638
vt 0.413391 0.339081
vt 0.220633 0.339081
vt 0.220633 0.290638
vt 0.027690 0.339081
vt 0.027690 0.290638
vt 0.518277 0.220415
vt 0.557985 0.220415
vt 0.557985 0.366482
vt 0.518277 0.366482
vt 0.943423 0.580018
vt 0.894981 0.580018
vt 0.894981 0.387151
vt 0.943423 0.387151
vt 0.220632 0.242195
vt 0.027690 0.242195
vt 0.413391 0.242195
vt 0.851070 0.000000
vt 0.899512 0.000003
vt 0.899512 0.193021
vt 0.851070 0.193018
vt 0.518276 0.220419
vt 0.518276 0.366601
vt 0.413391 0.387151
vt 0.220633 0.387151
vt 0.027690 0.387151
vt 0.597247 0.220415
vt 0.597247 0.366482
vt 0.597247 0.308144
vt 0.597247 0.268882
vt 0.623446 0.268858
vt 0.623446 0.316928
vt 0.623447 0.308030
vt 0.623447 0.268322
vt 0.647103 0.268484
vt 0.647103 0.316926
vt 0.597247 0.229174
vt 0.623446 0.220415
vt 0.827037 0.360361
vt 0.827037 0.214353
vt 0.850947 0.193186
vt 0.850947 0.385974
vt 0.681065 0.360754
vt 0.658206 0.386492
vt 0.623447 0.229061
vt 0.647103 0.220415
vt 0.201989 0.591060
vt 0.201989 0.444988
vt 0.227600 0.421945
vt 0.227600 0.614818
vt 0.055923 0.591296
vt 0.034735 0.615130
vt 0.262436 0.650500
vt 0.455300 0.650188
vt 0.455300 0.843061
vt 0.262436 0.843373
vt 0.413391 0.075732
vt 0.413391 0.000000
vt 0.597247 0.316930
vt 0.645362 0.316928
vt 0.645362 0.367770
vt 0.597247 0.367772
vt 0.819248 0.580018
vt 0.819248 0.387151
vt 0.894981 0.387151
vt 0.894981 0.580018
vt 0.740524 0.993807
vt 0.740524 0.800941
vt 0.771128 0.800941
vt 0.771128 0.993807
vt 0.974027 0.387152
vt 0.974027 0.580170
vt 0.943424 0.580169
vt 0.943424 0.387151
vt 0.413391 0.211591
vt 0.220633 0.211591
vt 0.220633 0.180987
vt 0.413391 0.180987
vt 0.027690 0.211591
vt 0.027690 0.180987
vt 0.771128 0.925158
vt 0.771128 0.800940
vt 0.789232 0.800940
vt 0.789232 0.925158
vt 0.917616 0.000001
vt 0.917616 0.124315
vt 0.899512 0.124314
vt 0.899512 0.000000
vt 0.220633 0.150383
vt 0.413391 0.150383
vt 0.027690 0.150383
vt 0.826165 0.800940
vt 0.844269 0.800940
vt 0.850440 0.846366
vt 0.819837 0.846366
vt 0.670582 0.147636
vt 0.794798 0.147435
vt 0.851070 0.192873
vt 0.658206 0.193186
vt 0.794798 0.023214
vt 0.851070 0.000000
vt 0.795482 0.800940
vt 0.813587 0.800940
vt 0.819836 0.857906
vt 0.789232 0.857906
vt 0.887676 0.744238
vt 0.887676 0.620072
vt 0.933265 0.607633
vt 0.933265 0.800422
vt 0.763540 0.744573
vt 0.740524 0.800940
vt 0.992014 0.607635
vt 0.992014 0.820915
vt 0.966041 0.820914
vt 0.966041 0.607633
vt 0.974027 0.600264
vt 0.974027 0.387151
vt 1.000000 0.387151
vt 1.000000 0.600264
vt 0.658206 0.007389
vt 0.657632 0.220415
vt 0.632049 0.192788
vt 0.632568 0.000000
vt 0.444657 0.220415
vt 0.439307 0.192788
vt 0.439308 0.213907
vt 0.439308 0.239880
vt 0.000000 0.239880
vt 0.000000 0.213907
vt 0.738168 0.607633
vt 0.525048 0.607634
vt 0.550644 0.580015
vt 0.743517 0.580015
vt 0.524703 0.394522
vt 0.550332 0.387151
vt 0.262435 0.387151
vt 0.262435 0.649598
vt 0.000000 0.650023
vt 0.000000 0.387575
vt 0.034735 0.422257
vt 0.255291 0.861666
vt 0.255291 0.650023
vt 0.261931 0.650023
vt 0.261931 0.861666
vt 0.255291 0.650023
vt 0.255291 0.861832
vt 0.248651 0.861832
vt 0.248651 0.650023
vt 0.413391 0.082932
vt 0.220633 0.082932
vt 0.027690 0.082932
vt 0.746416 0.458623
vt 0.746416 0.508696
vt 0.745445 0.578241
vt 0.745445 0.389079
vt 0.800692 0.454766
vt 0.747838 0.454763
vt 0.746975 0.392957
vt 0.811056 0.392961
vt 0.747838 0.512575
vt 0.800692 0.512578
vt 0.811056 0.574384
vt 0.746975 0.574380
vt 0.522750 0.650192
vt 0.522750 0.843210
vt 0.455300 0.843206
vt 0.455300 0.650188
vt 0.850947 0.386052
vt 0.850947 0.193186
vt 0.918398 0.193186
vt 0.918398 0.386052
vt 0.000242 0.082652
vt 0.000242 0.076012
vt 0.525045 0.827834
vt 0.524703 0.616193
vt 0.547339 0.607633
vt 0.547651 0.800498
vt 0.736696 0.827834
vt 0.740524 0.800498
vt 0.436466 0.076013
vt 0.436466 0.082652
vt 0.215307 0.870138
vt 0.003800 0.870138
vt 0.000000 0.842810
vt 0.192742 0.842810
vt 0.215876 0.658581
vt 0.193261 0.650023
vt 0.743517 0.580169
vt 0.743517 0.387151
vt 0.817320 0.389083
vt 0.819248 0.387155
vt 0.817320 0.578245
vt 0.819248 0.580173
vt 0.799216 0.458626
vt 0.799216 0.508699
vt 0.581131 0.828837
vt 0.581131 0.876883
vt 0.562343 0.877836
vt 0.562343 0.827834
vt 0.452128 0.366605
vt 0.452128 0.379702
vt 0.450008 0.379698
vt 0.450008 0.366601
vt 0.524703 0.880161
vt 0.524703 0.829318
vt 0.543511 0.827834
vt 0.543511 0.880636
vt 0.562343 0.828841
vt 0.562343 0.876920
vt 0.543511 0.877870
vt 0.866400 0.838815
vt 0.866400 0.828115
vt 0.869251 0.800941
vt 0.869251 0.853742
vt 0.853291 0.828190
vt 0.853291 0.838579
vt 0.850440 0.852258
vt 0.850440 0.801415
vt 0.439544 0.366601
vt 0.449932 0.366601
vt 0.439307 0.379710
vt 0.454247 0.377302
vt 0.454247 0.366602
vt 0.456365 0.366601
vt 0.456365 0.377301
vt 0.454247 0.379686
vt 0.452128 0.379693
vt 0.452128 0.366609
vt 0.456365 0.376990
vt 0.456365 0.366601
vt 0.458487 0.366601
vt 0.458487 0.376990
vn -1.0000 0.0000 0.0046
vn 1.0000 0.0000 -0.0046
vn -0.0046 0.0000 -1.0000
vn 0.0046 0.0000 1.0000
vn 0.0000 1.0000 0.0000
vn -0.7311 0.0000 0.6823
vn -0.6732 0.0000 0.7394
vn -0.4033 0.9151 0.0018
vn 0.0017 0.9255 0.3788
vn 0.0017 -0.9251 0.3797
vn -0.4043 -0.9146 0.0019
vn 0.0000 -1.0000 0.0000
vn -0.2643 0.0000 0.9644
vn -0.1608 -0.9870 0.0007
vn 0.0006 -0.9914 0.1305
vn -0.9211 0.0000 0.3893
vn -0.1608 0.9870 0.0007
vn 0.0006 0.9914 0.1305
vn -0.1063 0.9943 0.0005
vn 0.0005 0.9951 0.0988
vn -0.2784 0.0000 -0.9605
vn 0.9828 0.0000 0.1846
vn 0.0005 -0.9951 0.0988
vn -0.1063 -0.9943 0.0005
vn 0.0002 -0.9991 0.0421
vn -0.0002 -0.9991 -0.0421
vn 0.0421 -0.9991 -0.0002
vn -0.0421 -0.9991 0.0002
vn 0.9908 0.0000 0.1354
vn -0.0146 -0.9999 0.0001
vn 0.0001 -0.9999 0.0121
vn -0.3575 0.0000 -0.9339
vn 0.0001 0.9999 0.0121
vn -0.0146 0.9999 0.0001
vn 0.2571 0.0000 0.9664
vn -0.2482 0.0000 0.9687
vn 0.0040 0.5000 0.8660
vn 0.0122 0.4999 0.8660
vn -0.0043 0.4999 0.8661
vn 0.0045 -0.1355 0.9908
vn 0.0001 0.9996 0.0298
vn -0.0004 -1.0000 -0.0068
vn 0.9989 0.0000 0.0475
vn 0.0004 -0.9957 0.0929
vn -0.9984 0.0000 0.0566
vn 0.0566 0.0000 0.9984
vn -0.0012 0.9998 -0.0213
vn -0.0566 0.0000 -0.9984
usemtl None
s off
f 58/1/1 3/2/1 7/3/1 57/4/1
f 60/5/2 5/6/2 1/7/2 59/8/2
f 57/9/3 7/10/3 5/11/3 60/12/3
f 63/13/2 81/14/2 80/15/2 32/16/2
f 59/17/4 1/18/4 3/19/4 58/20/4
f 1/21/5 5/22/5 7/23/5 3/24/5
f 14/25/4 10/26/4 9/27/4 13/28/4
f 23/29/3 24/30/3 11/31/3 15/32/3
f 15/32/2 11/31/2 22/33/2 25/34/2
f 13/35/1 9/36/1 12/37/1 16/38/1
f 52/39/1 26/40/1 23/41/1 51/42/1
f 6/43/2 15/32/2 25/34/2 53/44/2
f 51/45/3 23/29/3 15/32/3 6/43/3
f 53/46/4 25/47/4 26/48/4 52/49/4
f 10/26/4 19/50/4 28/51/4 9/27/4
f 24/30/3 27/52/3 20/53/3 11/31/3
f 11/31/2 20/53/2 21/54/2 22/33/2
f 9/36/1 28/55/1 17/56/1 12/37/1
f 19/57/6 10/58/6 22/59/6 21/60/6
f 16/61/7 12/62/7 24/63/7 23/64/7
f 10/58/6 14/65/6 25/66/6 22/59/6
f 13/67/8 16/68/8 23/69/8 26/70/8
f 14/71/9 13/67/9 26/70/9 25/72/9
f 12/62/7 17/73/7 27/74/7 24/63/7
f 28/75/10 19/76/10 21/77/10 18/78/10
f 17/79/11 28/75/11 18/78/11 27/80/11
f 32/81/12 80/82/12 79/83/12 29/84/12
f 75/85/3 63/13/3 32/16/3 29/86/3
f 97/87/4 85/88/4 86/89/4 98/90/4
f 82/91/1 75/92/1 29/93/1 79/94/1
f 56/95/1 54/96/1 42/97/1 43/98/1
f 55/99/4 56/100/4 43/101/4 44/102/4
f 54/103/3 47/104/3 34/105/3 42/106/3
f 47/104/2 55/107/2 44/108/2 34/105/2
f 36/109/1 35/110/1 40/111/1 38/112/1
f 33/113/4 36/114/4 38/115/4 37/116/4
f 42/106/3 34/105/3 39/117/3 41/118/3
f 34/105/2 44/108/2 45/119/2 39/117/2
f 40/120/13 35/121/13 42/122/13 41/123/13
f 35/124/14 36/125/14 43/126/14 42/127/14
f 36/125/15 33/128/15 44/129/15 43/126/15
f 33/130/16 37/131/16 45/132/16 44/133/16
f 38/134/17 40/135/17 41/136/17 46/137/17
f 37/138/18 38/134/18 46/137/18 45/139/18
f 6/43/2 53/44/2 55/107/2 47/104/2
f 51/45/3 6/43/3 47/104/3 54/103/3
f 2/140/4 4/141/4 50/142/4 49/143/4
f 4/144/1 8/145/1 48/146/1 50/147/1
f 8/148/19 4/149/19 52/150/19 51/151/19
f 4/149/20 2/152/20 53/153/20 52/150/20
f 48/154/21 8/155/21 51/45/21 54/103/21
f 2/156/22 49/157/22 55/107/22 53/44/22
f 49/158/23 50/159/23 56/160/23 55/161/23
f 50/159/24 48/162/24 54/163/24 56/160/24
f 21/77/25 59/164/25 58/165/25 18/78/25
f 27/80/26 57/166/26 60/167/26 20/168/26
f 20/168/27 60/167/27 59/164/27 21/77/27
f 18/78/28 58/165/28 57/166/28 27/80/28
f 78/169/1 70/170/1 64/171/1 68/172/1
f 71/173/4 78/174/4 68/175/4 67/176/4
f 77/177/3 69/178/3 63/13/3 75/85/3
f 69/178/2 73/179/2 81/14/2 63/13/2
f 96/180/4 91/181/4 88/182/4 87/183/4
f 61/184/4 31/185/4 66/186/4 89/187/4
f 30/188/4 62/189/4 90/190/4 65/191/4
f 62/189/4 61/184/4 89/187/4 90/190/4
f 39/117/2 45/119/2 73/179/2 69/178/2
f 41/118/3 39/117/3 69/178/3 77/177/3
f 45/192/4 46/193/4 72/194/4 73/195/4
f 46/196/1 41/197/1 77/198/1 72/199/1
f 71/200/29 67/201/29 81/14/29 73/179/29
f 68/202/30 64/203/30 75/204/30 82/205/30
f 67/206/31 68/202/31 82/205/31 81/207/31
f 64/208/32 70/209/32 77/177/32 75/85/32
f 78/210/33 71/211/33 73/212/33 72/213/33
f 70/214/34 78/210/34 72/213/34 77/215/34
f 87/183/4 88/182/4 79/216/4 80/217/4
f 74/218/4 87/183/4 80/217/4 81/219/4
f 88/182/4 76/220/4 82/221/4 79/216/4
f 76/220/4 74/218/4 81/219/4 82/221/4
f 31/185/35 61/184/35 95/222/35 96/180/35
f 62/189/36 30/188/36 91/181/36 94/223/36
f 61/184/37 62/189/37 94/223/37 95/222/37
f 66/186/38 31/185/38 96/180/38 87/183/38
f 30/188/39 65/191/39 88/182/39 91/181/39
f 89/187/36 66/186/36 87/183/36 74/218/36
f 65/191/35 90/190/35 76/220/35 88/182/35
f 90/190/40 89/187/40 74/218/40 76/220/40
f 98/224/41 86/225/41 91/226/41 96/227/41
f 84/228/42 92/229/42 100/230/42 102/231/42
f 86/232/43 85/233/43 94/234/43 91/235/43
f 85/236/44 97/237/44 95/238/44 94/234/44
f 93/239/45 92/240/45 96/241/45 95/242/45
f 84/243/45 83/244/45 97/245/45 98/246/45
f 92/240/45 84/243/45 98/246/45 96/241/45
f 83/244/45 93/239/45 95/242/45 97/245/45
f 101/247/45 102/248/45 100/230/45 99/249/45
f 92/250/46 93/251/46 99/252/46 100/253/46
f 93/251/47 83/254/47 101/255/47 99/256/47
f 83/257/48 84/258/48 102/259/48 101/260/48
